<svg aria-hidden="true" style="position:absolute;width:0;height:0" xmlns="http://www.w3.org/2000/svg" overflow="hidden">
    <defs>
        <symbol id="icon-close" viewBox="0 0 18 18">
            <path d="M15 4.108L13.892 3 9.5 7.392 5.108 3 4 4.108 8.392 8.5 4 12.892 5.108 14 9.5 9.608 13.892 14 15 12.892 10.608 8.5 15 4.108z"/>
        </symbol>
        <symbol id="icon-pin" viewBox="0 0 18 18">
            <path d="M15 2V1H3v1a1 1 0 001 1v8a1 1 0 00-1 1v1h5v3a1 1 0 002 0v-3h5v-1a1 1 0 00-1-1V3a1 1 0 001-1zm-3 9H6V3h6v8z"/>
        </symbol>
        <symbol id="icon-cancel" viewBox="0 0 18 18">
            <path d="M9 1a8 8 0 100 16A8 8 0 009 1zM3 9c0-1.294.416-2.491 1.116-3.472l8.356 8.356A5.958 5.958 0 019 15c-3.309 0-6-2.691-6-6zm10.884 3.472L5.528 4.116A5.958 5.958 0 019 3c3.309 0 6 2.691 6 6a5.958 5.958 0 01-1.116 3.472z"/>
        </symbol>
        <symbol id="icon-chart" viewBox="0 0 18 18">
            <path d="M3 15V1H1v15a1 1 0 001 1h15v-2H3z"/>
            <path d="M5.5 13h1a.5.5 0 00.5-.5v-5a.5.5 0 00-.5-.5h-1a.5.5 0 00-.5.5v5a.5.5 0 00.5.5zM8.5 13h1a.5.5 0 00.5-.5v-9a.5.5 0 00-.5-.5h-1a.5.5 0 00-.5.5v9a.5.5 0 00.5.5zM11.5 13h1a.5.5 0 00.5-.5v-3a.5.5 0 00-.5-.5h-1a.5.5 0 00-.5.5v3a.5.5 0 00.5.5zM14.5 13h1a.5.5 0 00.5-.5v-7a.5.5 0 00-.5-.5h-1a.5.5 0 00-.5.5v7a.5.5 0 00.5.5z"/>
        </symbol>
    </defs>
</svg>